<svg xmlns="http://www.w3.org/2000/svg" xmlns:xlink="http://www.w3.org/1999/xlink" width="500" zoomAndPan="magnify" viewBox="0 0 375 374.999991" height="500" preserveAspectRatio="xMidYMid meet" version="1.0"><defs><clipPath id="18576d4e46"><path d="M 0 58 L 22 58 L 22 84 L 0 84 Z M 0 58 " clip-rule="nonzero"/></clipPath><clipPath id="a6e3d19864"><path d="M 0 22 L 49.5 22 L 49.5 66 L 0 66 Z M 0 22 " clip-rule="nonzero"/></clipPath><clipPath id="fbe6746152"><path d="M 0 0 L 49.5 0 L 49.5 43 L 0 43 Z M 0 0 " clip-rule="nonzero"/></clipPath></defs><g clip-path="url(#18576d4e46)"><path fill="#ff3131" d="M 0.8125 69.441406 L 21.292969 84.261719 L 21.292969 58.734375 Z M 0.8125 69.441406 " fill-opacity="1" fill-rule="evenodd"/></g><g clip-path="url(#a6e3d19864)"><path fill="#ff3131" d="M 0 65.085938 L 49.628906 39.144531 L 49.628906 22.125 L 0 48.050781 Z M 0 65.085938 " fill-opacity="1" fill-rule="evenodd"/></g><g clip-path="url(#fbe6746152)"><path fill="#ff3131" d="M 0 42.925781 L 49.628906 17 L 49.628906 0.0429688 L 0 25.964844 Z M 0 42.925781 " fill-opacity="1" fill-rule="evenodd"/></g></svg>